<svg xmlns="http://www.w3.org/2000/svg" version="1.1" xmlns:xlink="http://www.w3.org/1999/xlink" width="1600px" height="1600px"><svg version="1.1" id="SvgjsSvg1001" xmlns="http://www.w3.org/2000/svg" xmlns:xlink="http://www.w3.org/1999/xlink" x="0px" y="0px" width="1600px" height="1600px" viewBox="0 0 1600 1600" enable-background="new 0 0 1600 1600" xml:space="preserve">
<path d="M1300,1600H300c-165.686,0-300-134.314-300-300V300C0,134.314,134.314,0,300,0h1000c165.686,0,300,134.314,300,300v1000
	C1600,1465.686,1465.686,1600,1300,1600z"></path>
<g>
	<path fill="#FFFFFF" d="M442.754,468.271H375v30.797l68.479,5.268c0.686,39.139,1.035,78.448,1.035,117.921
		c0,51.626,0,103.253,0,154.865v41.356c0,52.218,0,104.27,0,156.185c0,39.588-0.347,78.747-1.028,117.48L375,1097.412v30.797h67.754
		h124.068h67.754v-30.797l-68.142-5.095c-0.398-39.254-0.711-78.763-0.932-118.534c-0.303-51.915-0.44-103.967-0.44-156.185v-40.477
		c0-52.204,0.137-104.119,0.44-155.745c0.22-39.409,0.529-78.478,0.927-117.213l68.147-5.095v-30.797h-67.754H442.754z"></path>
	<polygon fill="#FFFFFF" points="1225,468.271 1173.085,468.271 1131.729,468.271 1040.217,468.271 1040.217,499.068 
		1121.08,505.288 977.114,1005.701 838.241,504.65 915.27,499.068 915.27,468.271 828.157,468.271 695.29,468.271 651.294,468.271 
		651.294,499.068 705.909,503.545 895.031,1131.729 973.344,1131.729 1162.07,504.854 1225,499.068 	"></polygon>
</g>
</svg><style>@media (prefers-color-scheme: light) { :root { filter: none; } }
@media (prefers-color-scheme: dark) { :root { filter: none; } }
</style></svg>